<?xml version="1.0" standalone="no"?>
<!DOCTYPE svg PUBLIC "-//W3C//DTD SVG 20010904//EN"
 "http://www.w3.org/TR/2001/REC-SVG-20010904/DTD/svg10.dtd">
<svg version="1.0" xmlns="http://www.w3.org/2000/svg"
 width="640.000000pt" height="640.000000pt" viewBox="0 0 640.000000 640.000000"
 preserveAspectRatio="xMidYMid meet">
<metadata>
Created by potrace 1.11, written by Peter Selinger 2001-2013
</metadata>
<g transform="translate(0.000000,640.000000) scale(0.100000,-0.100000)"
fill="#000000" stroke="none">
<path d="M3176 6178 c-10 -24 -29 -67 -42 -95 -13 -29 -26 -64 -30 -78 -3 -14
-10 -25 -15 -25 -5 0 -8 -3 -7 -7 0 -5 -2 -17 -7 -28 -20 -50 -59 -143 -73
-175 -9 -19 -16 -37 -17 -40 -2 -5 -28 -66 -50 -115 -7 -16 -50 -118 -95 -225
-45 -107 -91 -215 -102 -240 -11 -25 -24 -54 -28 -65 -4 -11 -16 -38 -26 -60
-10 -22 -19 -42 -19 -45 -2 -8 -25 -63 -35 -85 -42 -91 -130 -304 -130 -314 0
-6 -4 -11 -10 -11 -5 0 -10 -8 -10 -18 0 -9 -9 -34 -20 -55 -11 -20 -18 -37
-16 -37 2 0 -9 -27 -25 -60 -16 -33 -29 -63 -29 -66 0 -3 -9 -25 -20 -50 -21
-46 -42 -97 -41 -101 0 -2 -7 -17 -17 -34 -16 -29 -23 -32 -72 -35 -82 -5
-185 -13 -185 -14 0 -1 -22 -3 -50 -5 -27 -2 -81 -6 -120 -10 -38 -3 -92 -8
-120 -10 -175 -14 -275 -23 -350 -30 -27 -3 -84 -7 -125 -10 -77 -6 -116 -9
-230 -20 -36 -4 -92 -8 -125 -10 -33 -2 -60 -4 -60 -5 0 -1 -20 -3 -45 -5 -25
-2 -76 -6 -115 -9 -38 -4 -95 -9 -125 -11 -30 -2 -80 -7 -112 -9 -53 -5 -131
-12 -243 -21 -27 -2 -84 -7 -125 -11 -41 -4 -81 -7 -89 -7 -18 0 5 -21 404
-367 72 -62 137 -119 145 -127 8 -7 27 -24 41 -36 26 -22 131 -114 174 -152
12 -11 33 -29 46 -39 13 -11 60 -52 104 -90 44 -39 106 -93 139 -121 32 -27
66 -57 75 -65 9 -9 48 -43 86 -75 39 -33 79 -69 90 -80 12 -11 50 -44 85 -74
36 -30 77 -66 92 -80 14 -14 41 -37 58 -50 18 -14 46 -38 63 -54 18 -16 52
-46 75 -65 40 -33 43 -39 38 -71 -8 -46 -13 -68 -25 -110 -6 -19 -9 -37 -6
-39 3 -3 0 -11 -6 -19 -6 -7 -9 -13 -6 -13 3 0 -2 -28 -12 -62 -9 -35 -17 -70
-16 -78 1 -8 -2 -19 -6 -25 -4 -5 -9 -23 -12 -40 -3 -16 -26 -118 -52 -225
-25 -107 -48 -206 -50 -220 -2 -14 -13 -61 -25 -104 -11 -44 -22 -89 -25 -100
-5 -25 -9 -41 -29 -127 -8 -37 -17 -78 -20 -90 -2 -13 -9 -44 -15 -69 -7 -25
-13 -53 -16 -63 -2 -10 -6 -26 -9 -35 -3 -9 -8 -29 -11 -45 -3 -15 -7 -39 -10
-55 -3 -15 -9 -36 -12 -47 -7 -22 -9 -33 -17 -83 -3 -19 -8 -37 -10 -41 -5 -7
-65 -258 -72 -301 -3 -14 -7 -33 -10 -42 -3 -9 -7 -25 -9 -35 -2 -10 -9 -40
-15 -68 -6 -27 -13 -57 -15 -67 -3 -14 83 33 225 123 95 60 365 219 371 219 5
0 9 5 9 10 0 6 4 10 10 10 5 0 75 40 156 90 80 49 150 90 155 90 5 0 9 5 9 10
0 6 4 10 9 10 5 0 81 43 168 97 173 105 365 222 392 238 9 6 39 23 66 40 28
16 58 34 67 40 10 5 86 52 170 104 84 52 160 94 168 93 9 0 45 -19 80 -41 36
-23 79 -48 97 -56 17 -8 37 -20 45 -27 7 -7 33 -24 58 -37 25 -13 52 -29 60
-36 8 -6 44 -29 80 -50 36 -21 82 -49 102 -62 20 -14 50 -32 67 -42 16 -9 47
-26 68 -39 21 -13 55 -33 75 -45 184 -110 254 -152 258 -157 3 -3 76 -48 163
-100 87 -52 175 -105 195 -118 20 -12 44 -25 52 -29 8 -4 17 -9 20 -12 3 -4
130 -82 283 -174 181 -109 277 -161 274 -150 -3 10 -13 48 -21 85 -9 38 -23
96 -31 130 -27 117 -47 203 -51 228 -3 14 -8 34 -11 45 -4 11 -8 25 -9 30 -9
43 -14 63 -19 85 -3 14 -8 36 -11 50 -3 14 -11 50 -19 80 -8 30 -16 66 -19 80
-15 73 -35 161 -47 200 -7 25 -13 50 -13 55 -2 11 -7 33 -48 205 -16 69 -32
134 -34 145 -7 31 -24 108 -30 135 -2 14 -9 39 -14 55 -5 17 -14 57 -21 90 -7
33 -13 62 -14 65 -12 52 -16 68 -19 85 -2 11 -12 49 -21 85 -9 36 -19 76 -21
90 -3 14 -7 33 -10 42 -3 9 -7 27 -9 40 -3 13 -10 47 -17 77 -12 53 -12 54 18
79 16 13 47 41 70 61 23 20 67 59 99 86 33 28 66 57 75 65 9 8 40 36 70 62 30
26 69 59 85 73 17 15 51 44 76 66 25 21 57 49 71 61 59 53 152 134 170 148 11
8 32 27 47 41 14 14 53 49 86 76 33 28 76 65 95 82 64 57 74 66 145 126 38 33
76 67 85 75 9 8 42 38 74 65 33 28 64 55 70 60 15 13 153 134 190 165 16 14
39 34 51 45 13 11 38 34 56 50 19 17 47 40 63 52 19 16 24 24 15 27 -14 5
-114 14 -219 22 -30 2 -80 6 -110 9 -30 2 -89 8 -130 11 -41 3 -91 7 -110 9
-19 2 -75 6 -125 10 -49 4 -106 8 -125 10 -19 2 -66 7 -105 10 -38 3 -92 7
-120 10 -72 7 -267 23 -285 23 -8 1 -37 3 -65 6 -27 3 -79 8 -115 11 -36 3
-87 8 -115 10 -27 3 -81 8 -120 11 -38 3 -88 7 -110 9 -22 1 -76 6 -120 9 -44
4 -102 8 -130 11 -27 3 -77 7 -110 10 -33 3 -62 9 -66 13 -3 4 -34 75 -69 157
-35 83 -72 170 -83 195 -10 25 -23 54 -27 65 -5 11 -18 40 -28 65 -11 25 -52
122 -92 215 -39 94 -77 184 -85 200 -7 17 -32 75 -55 130 -23 55 -48 114 -55
130 -8 17 -26 59 -41 95 -15 36 -34 81 -42 100 -9 19 -16 37 -17 40 -1 3 -11
26 -23 52 -12 26 -22 50 -22 53 0 3 -11 31 -25 61 -14 30 -37 82 -51 117 -14
34 -32 76 -39 92 -8 17 -33 75 -56 130 -23 55 -49 116 -57 135 -9 19 -16 39
-16 44 -2 26 -24 11 -40 -26z"/>
</g>
</svg>
